<svg width="30" height="30" viewBox="0 0 30 30" fill="none" xmlns="http://www.w3.org/2000/svg">
<path fill-rule="evenodd" clip-rule="evenodd" d="M28.3578 7.15114C28.5514 6.48814 28.3578 6 27.4303 6H24.3678C23.5885 6 23.2292 6.42136 23.0344 6.88643C23.0344 6.88643 21.4769 10.7673 19.2708 13.2881C18.5568 14.0191 18.2325 14.2511 17.8428 14.2511C17.648 14.2511 17.3552 14.0191 17.3552 13.3549V7.15114C17.3552 6.35457 17.1405 6 16.4918 6H11.6759C11.1895 6 10.8966 6.36914 10.8966 6.72007C10.8966 7.47414 12.0003 7.649 12.1134 9.77157V14.3834C12.1134 15.3949 11.9349 15.5783 11.5453 15.5783C10.507 15.5783 7.98119 11.6792 6.48205 7.21793C6.19156 6.34971 5.89756 6 5.11475 6H2.04998C1.175 6 1 6.42136 1 6.88643C1 7.71457 2.03831 11.8286 5.83573 17.2698C8.36735 20.9855 11.9314 23 15.1782 23C17.1253 23 17.3657 22.5531 17.3657 21.7821V18.9734C17.3657 18.0785 17.55 17.9 18.1671 17.9C18.6221 17.9 19.4003 18.1331 21.2179 19.9242C23.2945 22.048 23.6364 23 24.8053 23H27.8678C28.7428 23 29.1814 22.5531 28.9294 21.6691C28.6518 20.79 27.6601 19.5138 26.3453 17.9996C25.6313 17.1374 24.5603 16.2085 24.2348 15.7434C23.781 15.1472 23.9105 14.8813 24.2348 14.3506C24.2348 14.3506 27.9681 8.97621 28.3566 7.15114H28.3578Z" stroke="url(#paint0_linear)" stroke-opacity="0.5" stroke-width="2"/>
<defs>
<linearGradient id="paint0_linear" x1="15" y1="6" x2="15" y2="23" gradientUnits="userSpaceOnUse">
<stop stop-color="#75B355"/>
<stop offset="0.520833" stop-color="#579537"/>
<stop offset="1" stop-color="#397719"/>
</linearGradient>
</defs>
</svg>
