<svg fill="none" viewBox="0 0 418 100"><defs/><path fill="#333" d="M215.54 43v-.4l1.4-.2v-9.16l-1.4-.2v-.4h11.6v.4l-1.4.2v9.16l1.4.2v.4h-4.6v-.4l1.2-.2v-9.26h-4.8v9.26l1.2.2v.4h-4.6zm12.56 5.26l1.4-.2v-14.8l-1.4-.2v-.4h3.4v2.1c.33-.72.78-1.28 1.34-1.68a3.4 3.4 0 012.04-.62 4.44 4.44 0 014.18 2.56c.4.8.6 1.74.6 2.82 0 1.08-.2 2.03-.6 2.84a4.46 4.46 0 01-4.18 2.52c-.8 0-1.47-.2-2.04-.6-.56-.41-1.01-.97-1.34-1.68v7.14l1.88.2v.4h-5.28v-.4zm6.58-5.56c1.85 0 2.78-1.29 2.78-3.86v-2c0-2.59-.93-3.88-2.78-3.88-.6 0-1.12.17-1.6.52-.48.33-.86.79-1.14 1.36-.28.57-.43 1.2-.44 1.86v2.14c0 .68.13 1.32.4 1.92.28.59.66 1.06 1.14 1.42.49.35 1.04.52 1.64.52zm11.87.5a5.04 5.04 0 01-4.5-2.56 5.76 5.76 0 01-.68-2.82c0-1.05.22-1.99.68-2.8a5.15 5.15 0 014.5-2.56c.96 0 1.83.23 2.62.68.78.44 1.4 1.07 1.86 1.88.46.81.7 1.75.7 2.8 0 1.05-.24 2-.7 2.82a4.91 4.91 0 01-4.48 2.56zm0-.44c.98 0 1.72-.36 2.22-1.08.5-.72.76-1.67.76-2.86v-2c0-1.19-.26-2.13-.76-2.84-.5-.72-1.24-1.08-2.22-1.08-.99 0-1.74.36-2.24 1.08-.5.7-.74 1.65-.74 2.84v2c0 1.19.24 2.14.74 2.86.5.72 1.25 1.08 2.24 1.08zm6.57.24v-.4l1.4-.2v-9.16l-1.4-.2v-.4h4.6v.4l-1.2.2v7.78l5.06-7.38v-.4l-1.2-.2v-.4h4.6v.4l-1.4.2v9.16l1.4.2v.4h-4.6v-.4l1.2-.2v-7.92l-5.06 7.4v.52l1.2.2v.4h-4.6zm17.39.2c-1.48 0-2.56-.2-3.24-.62-.67-.43-1-.96-1-1.6 0-.4.11-.72.34-.96.24-.25.55-.38.94-.38.25 0 .48.07.68.2.2.13.34.32.42.56-.23.27-.34.55-.34.84 0 .45.2.83.6 1.14.41.3.94.44 1.6.44.8 0 1.44-.2 1.92-.62.5-.43.74-1.05.74-1.86v-.26c0-.73-.28-1.3-.82-1.68-.54-.4-1.2-.6-2-.6h-1.12v-.48h1.12c.76 0 1.34-.18 1.74-.54.4-.37.6-.91.6-1.62v-.08c0-1.5-.7-2.24-2.12-2.24a4.1 4.1 0 00-2.1.56l-1.2 2.86h-.42l.22-3.8 1.2.58a5.02 5.02 0 012.34-.58c1.5 0 2.57.22 3.24.66.66.43 1 1.07 1 1.94a2 2 0 01-.7 1.56c-.46.41-1.14.7-2.06.84v.02c1.08.1 1.88.4 2.42.86.54.47.82 1.09.82 1.86 0 .95-.4 1.69-1.2 2.22-.8.52-2 .78-3.62.78zm6.2-.6l1.4-.2v-9.16l-1.4-.2v-.4h5.48c1.38 0 2.36.2 2.94.58.59.37.88.99.88 1.84 0 1.24-.78 2.03-2.36 2.38v.06c2.03.28 3.04 1.18 3.04 2.7 0 .93-.34 1.63-1.02 2.1-.68.47-1.63.7-2.84.7h-6.12v-.4zm5-5.28c.7 0 1.22-.18 1.58-.54.38-.36.56-.9.56-1.62v-.08c0-.65-.19-1.14-.56-1.46-.37-.32-.94-.48-1.7-.48h-1.48v4.18h1.6zm.52 5.18c.73 0 1.3-.2 1.7-.58.4-.39.6-.95.6-1.7v-.14c0-.76-.2-1.33-.6-1.7-.38-.39-.95-.58-1.7-.58h-2.12v4.7h2.12zm11.25.7a5.05 5.05 0 01-4.5-2.56 5.77 5.77 0 01-.68-2.82c0-1.05.23-1.99.68-2.8a5.15 5.15 0 014.5-2.56c.96 0 1.83.23 2.62.68.79.44 1.4 1.07 1.86 1.88.47.81.7 1.75.7 2.8 0 1.05-.23 2-.7 2.82a4.9 4.9 0 01-4.48 2.56zm0-.44c.99 0 1.73-.36 2.22-1.08.5-.72.76-1.67.76-2.86v-2c0-1.19-.25-2.13-.76-2.84-.5-.72-1.23-1.08-2.22-1.08-.99 0-1.73.36-2.24 1.08-.5.7-.74 1.65-.74 2.84v2c0 1.19.25 2.14.74 2.86.5.72 1.25 1.08 2.24 1.08zm16.09 3.54H309l-1.76-3.3h-6.44l-1.74 3.3h-.56l.3-3.8h.64c.29 0 .58-.13.86-.38s.52-.62.74-1.1c.18-.44.33-.99.44-1.64.12-.65.22-1.68.32-3.08l.16-2.4-1.82-.86v-.4h9.1v.4l-1.4.2v9.26h1.42l.3 3.8zm-3.72-13.16h-3.32l-.22 3.16c-.1 1.41-.2 2.46-.32 3.14a9.41 9.41 0 01-.44 1.68 4.02 4.02 0 01-.94 1.38h5.24v-9.36zm9.9 10.06a5.04 5.04 0 01-4.5-2.56 5.77 5.77 0 01-.68-2.82c0-1.1.24-2.07.72-2.88a5.24 5.24 0 014.46-2.48c.76 0 1.45.13 2.08.4.62.25 1.12.61 1.48 1.08.37.47.56 1 .56 1.58 0 .44-.12.78-.34 1.02-.23.23-.53.34-.9.34a1.22 1.22 0 01-1.26-1.26c.2-.13.34-.28.42-.44.08-.16.12-.36.12-.6 0-.5-.2-.9-.6-1.2-.39-.32-.91-.48-1.56-.48-.96 0-1.7.35-2.22 1.04-.51.68-.76 1.64-.76 2.88v2c0 1.19.24 2.14.74 2.86.5.72 1.25 1.08 2.24 1.08.9 0 1.69-.25 2.36-.76.68-.52 1.1-1.2 1.26-2.04h.46a3.79 3.79 0 01-1.4 2.36c-.74.59-1.63.88-2.68.88zm7.74-.2v-.4l1.6-.2v-9.26h-1.72l-1.75 3.3h-.56l.3-3.8h9.44l.3 3.8h-.56l-1.75-3.3h-1.7v9.26l1.6.2v.4h-5.2zm8.57-.4l1.4-.2v-9.16l-1.4-.2v-.4h5.48c1.38 0 2.36.2 2.94.58.59.37.88.99.88 1.84 0 1.24-.78 2.03-2.36 2.38v.06c2.03.28 3.04 1.18 3.04 2.7 0 .93-.34 1.63-1.02 2.1-.68.47-1.62.7-2.84.7h-6.12v-.4zm5-5.28c.7 0 1.22-.18 1.58-.54.38-.36.56-.9.56-1.62v-.08c0-.65-.18-1.14-.56-1.46-.37-.32-.94-.48-1.7-.48h-1.48v4.18h1.6zm.52 5.18c.74 0 1.3-.2 1.7-.58.4-.39.6-.95.6-1.7v-.14c0-.76-.2-1.33-.6-1.7-.38-.39-.95-.58-1.7-.58h-2.12v4.7h2.12zm11.25.7a5.04 5.04 0 01-4.5-2.56 5.77 5.77 0 01-.68-2.82c0-1.05.23-1.99.68-2.8a5.15 5.15 0 014.5-2.56c.96 0 1.84.23 2.62.68.79.44 1.41 1.07 1.86 1.88.47.81.7 1.75.7 2.8 0 1.05-.23 2-.7 2.82a4.9 4.9 0 01-4.48 2.56zm0-.44c.99 0 1.73-.36 2.22-1.08.51-.72.76-1.67.76-2.86v-2c0-1.19-.25-2.13-.76-2.84-.49-.72-1.23-1.08-2.22-1.08-.98 0-1.73.36-2.24 1.08-.49.7-.74 1.65-.74 2.84v2c0 1.19.25 2.14.74 2.86.51.72 1.26 1.08 2.24 1.08zM221.04 70.2a5.04 5.04 0 01-4.5-2.56 5.77 5.77 0 01-.68-2.82c0-1.1.24-2.07.72-2.88a5.24 5.24 0 014.46-2.48c.76 0 1.45.13 2.08.4.63.25 1.12.61 1.48 1.08.37.47.56 1 .56 1.58 0 .44-.11.78-.34 1.02-.23.23-.53.34-.9.34a1.22 1.22 0 01-1.26-1.26c.2-.13.34-.28.42-.44.08-.16.12-.36.12-.6 0-.5-.2-.9-.6-1.2-.39-.32-.9-.48-1.56-.48-.96 0-1.7.35-2.22 1.04-.5.68-.76 1.64-.76 2.88v2c0 1.19.25 2.14.74 2.86.5.72 1.25 1.08 2.24 1.08.9 0 1.7-.25 2.36-.76.68-.52 1.1-1.2 1.26-2.04h.46a3.79 3.79 0 01-1.4 2.36c-.73.59-1.63.88-2.68.88zm7.74-.2v-.4l1.6-.2v-9.26h-1.72l-1.74 3.3h-.56l.3-3.8h9.44l.3 3.8h-.56l-1.76-3.3h-1.7v9.26l1.6.2v.4h-5.2zm14.08.2a5.05 5.05 0 01-4.5-2.56 5.77 5.77 0 01-.68-2.82c0-1.05.22-1.99.68-2.8a5.15 5.15 0 014.5-2.56c.96 0 1.83.23 2.62.68.78.44 1.4 1.07 1.86 1.88.46.81.7 1.75.7 2.8 0 1.05-.24 2-.7 2.82a4.9 4.9 0 01-4.48 2.56zm0-.44c.98 0 1.72-.36 2.22-1.08.5-.72.76-1.67.76-2.86v-2c0-1.19-.26-2.13-.76-2.84-.5-.72-1.24-1.08-2.22-1.08-.99 0-1.74.36-2.24 1.08-.5.7-.74 1.65-.74 2.84v2c0 1.19.24 2.14.74 2.86.5.72 1.25 1.08 2.24 1.08zm7.12.44c-.46 0-.83-.11-1.1-.34-.26-.23-.4-.56-.4-1 0-.37.12-.67.34-.88.23-.21.5-.32.82-.32.22 0 .4.05.54.14.15.08.26.17.32.26.08.1.13.15.14.18-.17.16-.26.33-.26.52 0 .21.14.32.4.32.91 0 1.46-1.93 1.66-5.8l.12-2.38-1.82-.86v-.4h8.98v.4l-1.4.2v9.14l1.44.2V70h-4.68v-.42l1.24-.2v-9.24h-3.24l-.16 3.16a23.72 23.72 0 01-.46 3.92c-.21 1-.52 1.75-.92 2.24-.4.5-.92.74-1.56.74zm12.05 0a2.6 2.6 0 01-1.02-.22 2.65 2.65 0 01-.9-.68l.3-.3c.24.24.48.36.7.36.2 0 .35-.07.44-.22.1-.15.2-.44.3-.88l.22-1.16c.12-.65.34-1.14.66-1.46.32-.32.84-.53 1.56-.64v-.1a3.43 3.43 0 01-1.74-.78c-.44-.4-.66-.99-.66-1.76 0-.9.3-1.57.9-2.02.6-.47 1.58-.7 2.92-.7h5.72v.42l-1.44.2v9.12l1.44.22v.4h-4.88v-.4l1.44-.22v-4.14h-1.84a2.1 2.1 0 00-1.34.38c-.3.25-.5.67-.6 1.26l-.3 1.7c-.1.59-.3 1-.58 1.26-.28.24-.71.36-1.3.36zm5.96-5.46v-4.6h-1.68c-.77 0-1.34.17-1.72.52-.36.35-.54.9-.54 1.66v.26c0 .75.19 1.3.56 1.64.38.35.89.52 1.54.52H268zm4.4 10.52l1.4-.2v-14.8l-1.4-.2v-.4h3.4v2.1c.34-.72.78-1.28 1.34-1.68a3.4 3.4 0 012.04-.62 4.44 4.44 0 014.18 2.56c.4.8.6 1.74.6 2.82 0 1.08-.2 2.03-.6 2.84a4.46 4.46 0 01-4.18 2.52c-.78 0-1.46-.2-2.04-.6-.56-.41-1-.97-1.34-1.68v7.14l1.88.2v.4h-5.28v-.4zm6.58-5.56c1.86 0 2.78-1.29 2.78-3.86v-2c0-2.59-.92-3.88-2.78-3.88-.58 0-1.12.17-1.6.52-.48.33-.86.79-1.14 1.36-.28.57-.42 1.2-.44 1.86v2.14c0 .68.14 1.32.4 1.92.28.59.66 1.06 1.14 1.42.5.35 1.04.52 1.64.52zm6.38.3v-.4l1.4-.2v-9.16l-1.4-.2v-.4h4.6v.4l-1.2.2v4.26h4.94v-4.26l-1.2-.2v-.4h4.6v.4l-1.4.2v9.16l1.4.2v.4h-4.6v-.4l1.2-.2V65h-4.94v4.4l1.2.2v.4h-4.6zm12.8-.4l1.4-.2v-9.16l-1.4-.2v-.4h4.8v.4l-1.4.2V64h2.53c1.21 0 2.16.25 2.84.76.68.5 1.02 1.25 1.02 2.24 0 .99-.34 1.73-1.02 2.24-.68.5-1.63.76-2.84.76h-5.92v-.4zm10.03.4v-.4l1.4-.2v-9.16l-1.4-.2v-.4h4.8v.4l-1.4.2v9.16l1.4.2v.4h-4.8zm-4.7-.5c.73 0 1.3-.21 1.7-.64.4-.43.6-1.04.6-1.84v-.04c0-.8-.2-1.41-.6-1.84-.4-.43-.97-.64-1.7-.64h-1.92v5h1.92zm20.36-.08l1.28.18v.4h-4.88v-.4l1.2-.2-2.76-3.78-2.94 3.52 1.62.46v.4h-3.58v-.4l1.34-.5 3.24-3.94-3.6-4.94-1.22-.18v-.4h4.88v.4l-1.26.22 2.5 3.42 2.68-3.16-1.58-.46v-.4h3.68v.4l-1.46.52-3 3.56 3.86 5.28zm6.54.58v-.4l1.4-.2v-9.16l-1.4-.2v-.4h4.6v.4l-1.2.2v7.78l5.06-7.38v-.4l-1.2-.2v-.4h4.6v.4l-1.4.2v9.16l1.4.2v.4h-4.6v-.4l1.2-.2v-7.92l-5.06 7.4v.52l1.2.2v.4h-4.6zm17.4.2c-1.49 0-2.57-.2-3.25-.62-.66-.43-1-.96-1-1.6 0-.4.12-.72.34-.96.24-.25.56-.38.94-.38.26 0 .48.07.68.2.2.13.34.32.42.56-.22.27-.34.55-.34.84 0 .45.2.83.6 1.14.42.3.95.44 1.6.44.8 0 1.44-.2 1.92-.62.5-.43.74-1.05.74-1.86v-.26c0-.73-.27-1.3-.82-1.68-.53-.4-1.2-.6-2-.6h-1.12v-.48h1.12c.76 0 1.34-.18 1.74-.54.4-.37.6-.91.6-1.62v-.08c0-1.5-.7-2.24-2.12-2.24a4.1 4.1 0 00-2.1.56l-1.2 2.86h-.42l.22-3.8 1.2.58a5.02 5.02 0 012.34-.58c1.5 0 2.58.22 3.24.66.67.43 1 1.07 1 1.94a2 2 0 01-.7 1.56c-.45.41-1.14.7-2.06.84v.02c1.08.1 1.89.4 2.42.86.55.47.82 1.09.82 1.86 0 .95-.4 1.69-1.2 2.22-.8.52-2 .78-3.62.78zm16.51 3.1h-.56l-1.76-3.3h-6.44l-1.74 3.3h-.56l.3-3.8h.64c.3 0 .58-.13.86-.38s.53-.62.74-1.1c.19-.44.34-.99.44-1.64.12-.65.23-1.68.32-3.08l.16-2.4-1.82-.86v-.4h9.1v.4l-1.4.2v9.26H364l.3 3.8zm-3.72-13.16h-3.32l-.22 3.16c-.1 1.41-.2 2.46-.32 3.14a9.5 9.5 0 01-.44 1.68 4.08 4.08 0 01-.76 1.2l-.18.18h5.24v-9.36zm10 10.06a5 5 0 01-4.58-2.56 5.56 5.56 0 01-.7-2.82c0-1.07.23-2 .68-2.8a4.93 4.93 0 011.86-1.88 5.15 5.15 0 014.88-.12 4 4 0 011.56 1.56c.38.65.57 1.4.58 2.26h-7.36v1.98c0 1.17.26 2.13.78 2.86.54.72 1.3 1.08 2.3 1.08a4 4 0 002.44-.78 3.2 3.2 0 001.3-2.02h.46a3.76 3.76 0 01-1.42 2.36c-.76.59-1.68.88-2.78.88zm2.08-6.86c0-1.16-.18-2.02-.54-2.58-.36-.57-.92-.86-1.68-.86-.89 0-1.58.31-2.08.94a4.4 4.4 0 00-.84 2.5h5.14zm4.19 6.86c-.47 0-.83-.11-1.1-.34-.27-.23-.4-.56-.4-1 0-.37.11-.67.34-.88.23-.21.5-.32.82-.32.21 0 .4.05.54.14.15.08.25.17.32.26.08.1.13.15.14.18-.17.16-.26.33-.26.52 0 .21.13.32.4.32.9 0 1.46-1.93 1.66-5.8l.12-2.38-1.82-.86v-.4h8.98v.4l-1.4.2v9.14l1.44.2V70h-4.68v-.42l1.24-.2v-9.24h-3.24l-.16 3.16a23.62 23.62 0 01-.46 3.92c-.21 1-.52 1.75-.92 2.24-.4.5-.92.74-1.56.74zm10.87-.2v-.4l1.4-.2v-9.16l-1.4-.2v-.4h4.6v.4l-1.2.2v7.78l5.06-7.38v-.4l-1.2-.2v-.4h4.6v.4l-1.4.2v9.16l1.4.2v.4h-4.6v-.4l1.2-.2v-7.92l-5.06 7.4v.52l1.2.2v.4h-4.6zm12.95 0v-.4l1.4-.2v-9.16l-1.4-.2v-.4h4.6v.4l-1.2.2v7.78l5.06-7.38v-.4l-1.2-.2v-.4h4.6v.4l-1.4.2v9.16l1.4.2v.4h-4.6v-.4l1.2-.2v-7.92l-5.06 7.4v.52l1.2.2v.4h-4.6zm6-11.64a5.56 5.56 0 01-2.54-.52c-.67-.36-1-.9-1-1.62 0-.33.11-.62.34-.86a1.24 1.24 0 011.74 0c.25.24.38.53.38.86-.2.1-.36.23-.48.38a.67.67 0 00-.16.42c0 .25.14.47.44.66.3.17.73.26 1.28.26.52 0 .93-.1 1.24-.28.3-.19.46-.4.46-.66 0-.3-.2-.57-.62-.78 0-.33.12-.62.36-.86.25-.24.55-.36.9-.36.33 0 .61.12.84.36.22.24.34.53.34.86 0 .72-.34 1.26-1.02 1.62-.67.35-1.5.52-2.5.52zM25.44 72.36a23.1 23.1 0 01-11.28-2.76 20.55 20.55 0 01-7.86-7.62A21.68 21.68 0 013.48 51c0-4.04.94-7.68 2.82-10.92a20.3 20.3 0 017.92-7.68 23.1 23.1 0 0111.28-2.76c3.12 0 6 .52 8.64 1.56a17.9 17.9 0 016.72 4.56l-2.82 2.82c-3.28-3.32-7.42-4.98-12.42-4.98-3.32 0-6.34.76-9.06 2.28a16.88 16.88 0 00-6.42 6.24A17.47 17.47 0 007.86 51c0 3.28.76 6.24 2.28 8.88a16.88 16.88 0 006.42 6.24 18.25 18.25 0 009.06 2.28c5.04 0 9.18-1.68 12.42-5.04l2.82 2.82c-1.84 2-4.1 3.54-6.78 4.62a23.37 23.37 0 01-8.64 1.56zM50.03 30h4.38v34.8L81.29 30h4.02v42h-4.38V37.26L54.05 72h-4.02V30zm49.45 0h4.38v34.8L130.74 30h4.02v42h-4.38V37.26L103.5 72h-4.02V30zm65.17 0c5.36 0 9.56 1.28 12.6 3.84 3.04 2.56 4.56 6.08 4.56 10.56s-1.52 8-4.56 10.56c-3.03 2.52-7.24 3.78-12.6 3.78h-11.28V72h-4.44V30h15.72zm-.12 24.84c4.16 0 7.34-.9 9.54-2.7 2.2-1.84 3.3-4.42 3.3-7.74 0-3.4-1.1-6-3.3-7.8-2.2-1.84-5.38-2.76-9.53-2.76h-11.16v21h11.16z"/><line x1="196.5" x2="196.5" y2="100" stroke="#333" stroke-width="3"/></svg>