<svg width="50" height="50" viewBox="0 0 50 50" fill="none" xmlns="http://www.w3.org/2000/svg">
<path d="M18.7501 5.95H18.6258L18.5379 6.03787L14.4591 10.1167H10.4167C8.67958 10.1167 7.01356 10.8068 5.7852 12.0351C4.55684 13.2635 3.86675 14.9295 3.86675 16.6667V35.4167C3.86675 37.1538 4.55684 38.8199 5.7852 40.0482C7.01356 41.2766 8.67958 41.9667 10.4167 41.9667H37.5001C39.2372 41.9667 40.9033 41.2766 42.1316 40.0482C43.36 38.8199 44.0501 37.1538 44.0501 35.4167V16.6667C44.0501 14.9295 43.36 13.2635 42.1316 12.0351C40.9033 10.8068 39.2373 10.1167 37.5001 10.1167H33.4577L29.3789 6.03787L29.291 5.95H29.1667H18.7501ZM15.4459 12.8H15.5702L15.658 12.7121L19.7368 8.63333H28.18L32.2588 12.7121L32.3467 12.8H32.4709H37.5001C38.5256 12.8 39.5091 13.2074 40.2342 13.9325C40.9594 14.6577 41.3667 15.6412 41.3667 16.6667V35.4167C41.3667 36.4422 40.9594 37.4257 40.2342 38.1508C39.5091 38.8759 38.5256 39.2833 37.5001 39.2833H10.4167C9.39124 39.2833 8.40774 38.8759 7.6826 38.1508C6.95746 37.4257 6.55008 36.4422 6.55008 35.4167V16.6667C6.55008 15.6412 6.95746 14.6577 7.6826 13.9325C8.40774 13.2074 9.39124 12.8 10.4167 12.8H15.4459ZM30.7997 19.2004C28.9853 17.386 26.5244 16.3667 23.9584 16.3667C21.3924 16.3667 18.9316 17.386 17.1172 19.2004C15.3027 21.0148 14.2834 23.4757 14.2834 26.0417C14.2834 28.6076 15.3027 31.0685 17.1172 32.8829C18.9316 34.6973 21.3924 35.7167 23.9584 35.7167C26.5244 35.7167 28.9853 34.6973 30.7997 32.8829C32.6141 31.0685 33.6334 28.6076 33.6334 26.0417C33.6334 23.4757 32.6141 21.0148 30.7997 19.2004ZM19.0146 21.0978C20.3258 19.7866 22.1041 19.05 23.9584 19.05C25.8127 19.05 27.5911 19.7866 28.9023 21.0978C30.2135 22.409 30.9501 24.1874 30.9501 26.0417C30.9501 27.896 30.2135 29.6743 28.9023 30.9855C27.5911 32.2967 25.8127 33.0333 23.9584 33.0333C22.1041 33.0333 20.3258 32.2967 19.0146 30.9855C17.7034 29.6743 16.9667 27.896 16.9667 26.0417C16.9667 24.1874 17.7034 22.409 19.0146 21.0978Z" fill="#C4C4C4" stroke="#C4C4C4" stroke-width="0.6"/>
</svg>
