<svg width="50" height="50" viewBox="0 0 50 50" fill="none" xmlns="http://www.w3.org/2000/svg">
<path fill-rule="evenodd" clip-rule="evenodd" d="M0 15.625C0 13.9674 0.65848 12.3777 1.83058 11.2056C3.00269 10.0335 4.5924 9.375 6.25 9.375H29.6875C31.2034 9.37482 32.6677 9.9256 33.8077 10.9248C34.9478 11.9239 35.6858 13.3034 35.8844 14.8062L45.6031 10.4875C46.0788 10.2755 46.6 10.1858 47.1192 10.2265C47.6384 10.2672 48.1392 10.437 48.5761 10.7205C49.0129 11.004 49.372 11.3922 49.6207 11.8498C49.8694 12.3073 49.9998 12.8198 50 13.3406V36.6594C49.9995 37.1798 49.8691 37.6918 49.6206 38.149C49.3721 38.6062 49.0134 38.9941 48.5769 39.2775C48.1405 39.561 47.6402 39.7309 47.1214 39.7719C46.6026 39.8129 46.0818 39.7238 45.6063 39.5125L35.8844 35.1938C35.6858 36.6966 34.9478 38.0761 33.8077 39.0752C32.6677 40.0744 31.2034 40.6252 29.6875 40.625H6.25C4.5924 40.625 3.00269 39.9665 1.83058 38.7944C0.65848 37.6223 0 36.0326 0 34.375V15.625ZM35.9375 31.7969L46.875 36.6594V13.3406L35.9375 18.2031V31.7969ZM6.25 12.5C5.4212 12.5 4.62634 12.8292 4.04029 13.4153C3.45424 14.0013 3.125 14.7962 3.125 15.625V34.375C3.125 35.2038 3.45424 35.9987 4.04029 36.5847C4.62634 37.1708 5.4212 37.5 6.25 37.5H29.6875C30.5163 37.5 31.3112 37.1708 31.8972 36.5847C32.4833 35.9987 32.8125 35.2038 32.8125 34.375V15.625C32.8125 14.7962 32.4833 14.0013 31.8972 13.4153C31.3112 12.8292 30.5163 12.5 29.6875 12.5H6.25Z" fill="#C4C4C4"/>
</svg>
